<?xml version="1.0" encoding="utf-8" ?>
<svg xmlns="http://www.w3.org/2000/svg" xmlns:xlink="http://www.w3.org/1999/xlink" width="14" height="14">
	<path fill="#5F6368" d="M4.9000001 7.3499999L5.5999999 7.3499999L5.5999999 5.9499998L6.3000002 5.9499998C6.4983335 5.9499998 6.6645832 5.8829165 6.7987499 5.7487502C6.9329166 5.6145835 7 5.4483333 7 5.25L7 4.5500002C7 4.3516665 6.9329166 4.1854167 6.7987499 4.05125C6.6645832 3.9170833 6.4983335 3.8499999 6.3000002 3.8499999L4.9000001 3.8499999L4.9000001 7.3499999ZM5.5999999 5.25L5.5999999 4.5500002L6.3000002 4.5500002L6.3000002 5.25L5.5999999 5.25ZM7.6999998 7.3499999L9.1000004 7.3499999C9.2983332 7.3499999 9.4645834 7.2829165 9.5987501 7.1487498C9.7329168 7.0145831 9.8000002 6.8483334 9.8000002 6.6500001L9.8000002 4.5500002C9.8000002 4.3516665 9.7329168 4.1854167 9.5987501 4.05125C9.4645834 3.9170833 9.2983332 3.8499999 9.1000004 3.8499999L7.6999998 3.8499999L7.6999998 7.3499999ZM8.3999996 6.6500001L8.3999996 4.5500002L9.1000004 4.5500002L9.1000004 6.6500001L8.3999996 6.6500001ZM10.5 7.3499999L11.2 7.3499999L11.2 5.9499998L11.9 5.9499998L11.9 5.25L11.2 5.25L11.2 4.5500002L11.9 4.5500002L11.9 3.8499999L10.5 3.8499999L10.5 7.3499999ZM4.1999998 11.2C3.8150001 11.2 3.4854167 11.062917 3.2112501 10.78875C2.9370832 10.514584 2.8 10.185 2.8 9.8000002L2.8 1.4C2.8 1.015 2.9370832 0.68541664 3.2112501 0.41125C3.4854167 0.13708334 3.8150001 0 4.1999998 0L12.6 0C12.985 0 13.314584 0.13708334 13.58875 0.41125C13.862917 0.68541664 14 1.015 14 1.4L14 9.8000002C14 10.185 13.862917 10.514584 13.58875 10.78875C13.314584 11.062917 12.985 11.2 12.6 11.2L4.1999998 11.2ZM4.1999998 9.8000002L12.6 9.8000002L12.6 1.4L4.1999998 1.4L4.1999998 9.8000002ZM1.4 14C1.015 14 0.68541664 13.862917 0.41125 13.58875C0.13708334 13.314584 0 12.985 0 12.6L0 2.8L1.4 2.8L1.4 12.6L11.2 12.6L11.2 14L1.4 14ZM4.24125 1.4L4.24125 9.8000002L4.24125 1.4Z"/>
</svg>
