<?xml version="1.0" encoding="utf-8" ?>
<svg xmlns="http://www.w3.org/2000/svg" xmlns:xlink="http://www.w3.org/1999/xlink" width="13" height="13">
	<path fill="#075697" d="M6.5 9.75L2.4375 5.6875L3.575 4.5093751L5.6875 6.6218748L5.6875 0L7.3125 0L7.3125 6.6218748L9.4250002 4.5093751L10.5625 5.6875L6.5 9.75ZM1.625 13C1.178125 13 0.79557294 12.840885 0.47734374 12.522656C0.15911458 12.204427 0 11.821875 0 11.375L0 8.9375L1.625 8.9375L1.625 11.375L11.375 11.375L11.375 8.9375L13 8.9375L13 11.375C13 11.821875 12.840885 12.204427 12.522656 12.522656C12.204427 12.840885 11.821875 13 11.375 13L1.625 13Z"/>
</svg>
