<?xml version="1.0" encoding="utf-8" ?>
<svg xmlns="http://www.w3.org/2000/svg" xmlns:xlink="http://www.w3.org/1999/xlink" width="14" height="12">
	<path fill="#075697" d="M1.4 11.2C1.015 11.2 0.68541664 11.062917 0.41125 10.78875C0.13708334 10.514584 0 10.185 0 9.8000002L0 1.4C0 1.015 0.13708334 0.68541664 0.41125 0.41125C0.68541664 0.13708334 1.015 0 1.4 0L12.6 0C12.985 0 13.314584 0.13708334 13.58875 0.41125C13.862917 0.68541664 14 1.015 14 1.4L14 9.8000002C14 10.185 13.862917 10.514584 13.58875 10.78875C13.314584 11.062917 12.985 11.2 12.6 11.2L1.4 11.2ZM7 6.3000002L1.4 2.8L1.4 9.8000002L12.6 9.8000002L12.6 2.8L7 6.3000002ZM7 4.9000001L12.6 1.4L1.4 1.4L7 4.9000001ZM1.44125 2.8L1.44125 1.4L1.44125 9.8000002L1.44125 2.8Z"/>
</svg>
