<?xml version="1.0" encoding="utf-8" ?>
<svg xmlns="http://www.w3.org/2000/svg" xmlns:xlink="http://www.w3.org/1999/xlink" width="13" height="13">
	<path fill="#075697" d="M11.988889 13L7.438889 8.4499998C7.0777779 8.7388887 6.6624999 8.9675922 6.1930556 9.1361113C5.7236109 9.3046293 5.2240739 9.3888893 4.6944447 9.3888893C3.3824074 9.3888893 2.2719908 8.9344912 1.3631945 8.0256948C0.45439816 7.1168981 0 6.0064816 0 4.6944447C0 3.3824074 0.45439816 2.2719908 1.3631945 1.3631945C2.2719908 0.45439816 3.3824074 0 4.6944447 0C6.0064816 0 7.1168981 0.45439816 8.0256948 1.3631945C8.9344912 2.2719908 9.3888893 3.3824074 9.3888893 4.6944447C9.3888893 5.2240739 9.3046293 5.7236109 9.1361113 6.1930556C8.9675922 6.6624999 8.7388887 7.0777779 8.4499998 7.438889L13 11.988889L11.988889 13ZM4.6944447 7.9444447C5.5972223 7.9444447 6.3645835 7.6284723 6.9965277 6.9965277C7.6284723 6.3645835 7.9444447 5.5972223 7.9444447 4.6944447C7.9444447 3.7916667 7.6284723 3.0243056 6.9965277 2.3923612C6.3645835 1.7604166 5.5972223 1.4444444 4.6944447 1.4444444C3.7916667 1.4444444 3.0243056 1.7604166 2.3923612 2.3923612C1.7604166 3.0243056 1.4444444 3.7916667 1.4444444 4.6944447C1.4444444 5.5972223 1.7604166 6.3645835 2.3923612 6.9965277C3.0243056 7.6284723 3.7916667 7.9444447 4.6944447 7.9444447Z"/>
</svg>
