<?xml version="1.0" encoding="utf-8" ?>
<svg xmlns="http://www.w3.org/2000/svg" xmlns:xlink="http://www.w3.org/1999/xlink" width="16" height="17">
	<path fill="#34A8F6" transform="translate(0 -9.53674e-07)" d="M12.708333 16.944445C12.002315 16.944445 11.402199 16.697338 10.907986 16.203125C10.413774 15.708912 10.166667 15.108796 10.166667 14.402778C10.166667 14.303935 10.173727 14.201563 10.187847 14.095659C10.201967 13.989757 10.223148 13.894444 10.251389 13.809722L4.2784724 10.336111C4.0384259 10.547916 3.770139 10.713831 3.4736111 10.833854C3.1770833 10.953877 2.8664353 11.013889 2.5416667 11.013889C1.8356482 11.013889 1.2355324 10.766783 0.74131942 10.27257C0.24710648 9.7783566 0 9.1782408 0 8.4722223C0 7.7662039 0.24710648 7.1660881 0.74131942 6.671875C1.2355324 6.1776619 1.8356482 5.9305553 2.5416667 5.9305553C2.8664353 5.9305553 3.1770833 5.9905672 3.4736111 6.1105905C3.770139 6.2306132 4.0384259 6.3965278 4.2784724 6.6083331L10.251389 3.1347222C10.223148 3.05 10.201967 2.9546876 10.187847 2.8487847C10.173727 2.742882 10.166667 2.6405094 10.166667 2.5416667C10.166667 1.8356482 10.413774 1.2355324 10.907986 0.74131942C11.402199 0.24710648 12.002315 0 12.708333 0C13.414351 0 14.014467 0.24710648 14.50868 0.74131942C15.002893 1.2355324 15.25 1.8356482 15.25 2.5416667C15.25 3.2476852 15.002893 3.847801 14.50868 4.3420138C14.014467 4.8362269 13.414351 5.0833335 12.708333 5.0833335C12.383565 5.0833335 12.072917 5.0233216 11.776389 4.9032984C11.479861 4.7832756 11.211574 4.6173611 10.971528 4.4055557L4.998611 7.8791666C5.0268517 7.9638891 5.0480323 8.0592012 5.0621529 8.1651039C5.076273 8.2710066 5.0833335 8.3733797 5.0833335 8.4722223C5.0833335 8.5710649 5.076273 8.6734371 5.0621529 8.7793407C5.0480323 8.8852434 5.0268517 8.9805555 4.998611 9.0652781L10.971528 12.538889C11.211574 12.327084 11.479861 12.161169 11.776389 12.041146C12.072917 11.921123 12.383565 11.861111 12.708333 11.861111C13.414351 11.861111 14.014467 12.108217 14.50868 12.60243C15.002893 13.096643 15.25 13.696759 15.25 14.402778C15.25 15.108796 15.002893 15.708912 14.50868 16.203125C14.014467 16.697338 13.414351 16.944445 12.708333 16.944445ZM12.708333 3.3888888C12.94838 3.3888888 13.149595 3.3076968 13.311979 3.1453125C13.474363 2.9829283 13.555555 2.781713 13.555555 2.5416667C13.555555 2.3016205 13.474363 2.100405 13.311979 1.9380208C13.149595 1.7756366 12.94838 1.6944444 12.708333 1.6944444C12.468287 1.6944444 12.267072 1.7756366 12.104688 1.9380208C11.942304 2.100405 11.861111 2.3016205 11.861111 2.5416667C11.861111 2.781713 11.942304 2.9829283 12.104688 3.1453125C12.267072 3.3076968 12.468287 3.3888888 12.708333 3.3888888ZM2.5416667 9.3194447C2.781713 9.3194447 2.9829283 9.2382526 3.1453125 9.0758677C3.3076968 8.9134836 3.3888888 8.7122688 3.3888888 8.4722223C3.3888888 8.2321758 3.3076968 8.030961 3.1453125 7.8685765C2.9829283 7.706192 2.781713 7.625 2.5416667 7.625C2.3016205 7.625 2.100405 7.706192 1.9380208 7.8685765C1.7756366 8.030961 1.6944444 8.2321758 1.6944444 8.4722223C1.6944444 8.7122688 1.7756366 8.9134836 1.9380208 9.0758677C2.100405 9.2382526 2.3016205 9.3194447 2.5416667 9.3194447ZM12.708333 15.25C12.94838 15.25 13.149595 15.168808 13.311979 15.006424C13.474363 14.844039 13.555555 14.642824 13.555555 14.402778C13.555555 14.162731 13.474363 13.961516 13.311979 13.799132C13.149595 13.636747 12.94838 13.555555 12.708333 13.555555C12.468287 13.555555 12.267072 13.636747 12.104688 13.799132C11.942304 13.961516 11.861111 14.162731 11.861111 14.402778C11.861111 14.642824 11.942304 14.844039 12.104688 15.006424C12.267072 15.168808 12.468287 15.25 12.708333 15.25Z"/>
</svg>
