<?xml version="1.0" encoding="utf-8" ?>
<svg xmlns="http://www.w3.org/2000/svg" xmlns:xlink="http://www.w3.org/1999/xlink" width="16" height="22">
	<path fill="white" d="M2 22C1.45 22 0.97916669 21.804167 0.58749998 21.4125C0.19583334 21.020834 0 20.549999 0 20L0 9C0 8.4499998 0.19583334 7.9791665 0.58749998 7.5875001C0.97916669 7.1958332 1.45 7 2 7L5 7L5 9L2 9L2 20L14 20L14 9L11 9L11 7L14 7C14.55 7 15.020833 7.1958332 15.4125 7.5875001C15.804167 7.9791665 16 8.4499998 16 9L16 20C16 20.549999 15.804167 21.020834 15.4125 21.4125C15.020833 21.804167 14.55 22 14 22L2 22ZM7 15L7 3.825L5.4000001 5.4250002L4 4L8 0L12 4L10.6 5.4250002L9 3.825L9 15L7 15Z"/>
</svg>
